# xmcd
#
# Track frame offsets:
#	150
#	6251
#	18914
#	32846
#	44587
#	57802
#	72969
#	84787
#	97310
#	110203
#	124632
#	137400
#	151624
#	166527
#
# Disc length: 2322 seconds
#
# Revision: 0
# Processed by: cddbd v1.5.1PL2 Copyright (c) Steve Scherf et al.
# Submitted via: EasyCDDAExtractor 9.1.3.1
#
DISCID=a909100e
DTITLE=Dick Rivers - Mississippi River's
DYEAR=1900
DGENRE=Chanson
TTITLE0=Louisiana man
TTITLE1=Jambalaya
TTITLE2=Faire un pont
TTITLE3=Ruby Baby
TTITLE4=Demain je lui téléphone
TTITLE5=Et toi tu t'endors
TTITLE6=Crystal bar
TTITLE7=Je l'imagine
TTITLE8=Colinda
TTITLE9=L'amour et le Boogie Woogie
TTITLE10=C'est pas toujours drôle d'être routier
TTITLE11=Elle s'appelait july
TTITLE12=Fait ce qu'il te plait
TTITLE13=Louisiana man
EXTD=
EXTT0=
EXTT1=
EXTT2=
EXTT3=
EXTT4=
EXTT5=
EXTT6=
EXTT7=
EXTT8=
EXTT9=
EXTT10=
EXTT11=
EXTT12=
EXTT13=
PLAYORDER=
